<svg version="1.0" xmlns="http://www.w3.org/2000/svg" width="85pt" height="72pt" fill="red" viewBox="0 0 85 72" preserveAspectRatio="xMidYMid meet">
  <g transform="translate(0.000000,72.000000) scale(0.100000,-0.100000)"  stroke="none">
    <path d="M210 639 c-107 -38 -199 -74 -205 -80 -18 -18 20 -36 221 -108 l201 -72 209 75 c166 58 210 78 212 93 2 16 -26 29 -202 91 -113 40 -213 72 -223 71 -10 0 -106 -32 -213 -70z"/>
    <path d="M763 443 c-9 -3 -13 -33 -13 -99 0 -72 -4 -101 -17 -120 -15 -24 -15 -28 0 -57 9 -18 18 -61 19 -97 2 -50 6 -65 18 -65 12 0 16 16 18 72 2 47 8 75 17 83 19 16 19 41 0 66 -10 14 -14 47 -15 122 0 56 -3 102 -7 101 -5 0 -14 -3 -20 -6z"/>
    <path d="M180 346 c0 -56 3 -67 23 -81 41 -29 129 -49 222 -49 107 -1 185 17 226 51 26 22 29 31 29 84 0 32 -2 59 -4 59 -2 0 -55 -18 -116 -40 -61 -22 -121 -40 -133 -40 -12 0 -71 18 -131 40 -61 22 -111 40 -113 40 -2 0 -3 -29 -3 -64z"/>
  </g>
</svg>
